:version 1.10
:name ASF
:units
  mass 1
  length 1
  angle deg
:documentation
  ASF file generated by Kaydara
:root
  axis xyz
  order  tx ty tz rx ry rz
  position 0 0 0
  orientation 0 0 0
:bonedata
  begin
    id 1
    name abdomenDummy
    direction 1 -1.27917e-005 -1.26829e-007
    length 1.79048
    axis 0 0 0 xyz
  end
  begin
    id 2
    name abdomen
    direction 0.987238 0.159249 -9.68575e-008
    length 8.61378
    axis 2.73208e-005 5.54953e-006 9.16328 xyz
    dof rx ry rz
  end
  begin
    id 3
    name chest
    direction 0 0 0
    length 0
    axis 2.65071e-005 8.63688e-006 2.59796 xyz
    dof rx ry rz
  end
  begin
    id 4
    name neckDummyDummy
    direction 0.998972 0.0453274 -1.50742e-007
    length 9.56202
    axis 2.65071e-005 8.63688e-006 2.59796 xyz
  end
  begin
    id 5
    name neckDummy
    direction 0.99977 0.0214525 -1.61748e-007
    length 1.93574
    axis 2.62932e-005 9.26758e-006 1.22924 xyz
    dof rx ry rz
  end
  begin
    id 6
    name neck
    direction 0.99928 -0.0379406 -1.88707e-007
    length 3.70367
    axis 2.56966e-005 1.08122e-005 -2.17436 xyz
    dof rx ry rz
  end
  begin
    id 7
    name head
    direction 0.992648 -0.121037 -2.25408e-007
    length 6.35158
    axis 2.47068e-005 1.29149e-005 -6.95196 xyz
    dof rx ry rz
  end
  begin
    id 8
    name figureHair
    direction -0.86681 -0.498639 -7.83376e-008
    length 8.29884
    axis -2.7515e-005 4.48842e-006 -150.09 xyz
    dof rx ry rz
  end
  begin
    id 9
    name lCollarDummy
    direction 0.994611 0.0451299 -0.0933417
    length 9.60395
    axis 2.65071e-005 8.63688e-006 2.59796 xyz
  end
  begin
    id 10
    name lCollar
    direction 0.0384146 0.00127577 -0.999261
    length 6.95318
    axis 90.4899 87.7973 1.90202 xyz
    dof rx ry rz
  end
  begin
    id 11
    name lShldr
    direction -0.030648 0.0920515 -0.995282
    length 9.61158
    axis -161.793 84.4324 108.415 xyz
    dof rx ry rz
  end
  begin
    id 12
    name lForeArm
    direction 0.000163956 -0.0977586 -0.99521
    length 8.6068
    axis 0.134773 84.3899 -89.8525 xyz
    dof rx ry rz
  end
  begin
    id 13
    name lHand
    direction -0.0190533 -0.1444 -0.989336
    length 7.61479
    axis -7.3729 81.6249 -97.517 xyz
    dof rx ry rz
  end
  begin
    id 14
    name rCollarDummy
    direction 0.994871 0.0442627 0.0909555
    length 9.60761
    axis 2.65071e-005 8.63688e-006 2.59796 xyz
  end
  begin
    id 15
    name rCollar
    direction 0.0334251 -4.74072e-007 0.999441
    length 6.97058
    axis -178.152 -88.0845 -0.000674207 xyz
    dof rx ry rz
  end
  begin
    id 16
    name rShldr
    direction -0.026922 0.0719509 0.997045
    length 9.60913
    axis 71.2822 -85.594 110.514 xyz
    dof rx ry rz
  end
  begin
    id 17
    name rForeArm
    direction 0.00134679 -0.118986 0.992895
    length 8.57176
    axis -88.7923 -83.1659 -89.3516 xyz
    dof rx ry rz
  end
  begin
    id 18
    name rHand
    direction -0.0185183 -0.0768601 0.99687
    length 7.69687
    axis -74.5596 -85.4655 -103.546 xyz
    dof rx ry rz
  end
  begin
    id 19
    name lThighDummy
    direction -0.236086 -0.0385456 -0.970967
    length 4.99155
    axis 0 0 0 xyz
  end
  begin
    id 20
    name lThigh
    direction -0.993968 0.0148998 -0.108653
    length 13.572
    axis -91.4001 6.23768 179.141 xyz
    dof rx ry rz
  end
  begin
    id 21
    name lShin
    direction -0.992341 0.0904576 -0.0841193
    length 18.5862
    axis -91.4558 4.82538 174.792 xyz
    dof rx ry rz
  end
  begin
    id 22
    name lFoot
    direction 0.0209381 -0.999771 -0.00453005
    length 8.44474
    axis 4.86759 0.259522 -88.8001 xyz
    dof rx ry rz
  end
  begin
    id 23
    name rThighDummy
    direction -0.236086 -0.0385456 0.970967
    length 4.99155
    axis 0 0 0 xyz
  end
  begin
    id 24
    name rThigh
    direction -0.993968 0.0148995 0.108653
    length 13.5721
    axis -89.7059 -6.2377 179.141 xyz
    dof rx ry rz
  end
  begin
    id 25
    name rShin
    direction -0.9925 0.0899962 0.0827255
    length 18.6716
    axis -89.2745 -4.74775 174.819 xyz
    dof rx ry rz
  end
  begin
    id 26
    name rFoot
    direction 0.0301721 -0.999545 9.70865e-005
    length 8.45013
    axis -2.50066e-005 -0.00555246 -88.271 xyz
    dof rx ry rz
  end
:hierarchy
  begin
    root abdomenDummy lThighDummy rThighDummy
    abdomenDummy abdomen
    abdomen chest
    chest neckDummyDummy lCollarDummy rCollarDummy
    neckDummyDummy neckDummy
    neckDummy neck
    neck head
    head figureHair
    lCollarDummy lCollar
    lCollar lShldr
    lShldr lForeArm
    lForeArm lHand
    rCollarDummy rCollar
    rCollar rShldr
    rShldr rForeArm
    rForeArm rHand
    lThighDummy lThigh
    lThigh lShin
    lShin lFoot
    rThighDummy rThigh
    rThigh rShin
    rShin rFoot
  end

:SAMPLES-PER-SECOND 25
:FULLY-SPECIFIED
:DEGREES
292
root  5.26269 36.9123 -3.79381 178.465 1.5836 94.6818
abdomen  0.782967 -6.60568 -1.68538
chest  1.68047 3.07181 -11.4182
neckDummy  9.09964e-021 0 8.72668e-016
neck  5.69537 10.383 -5.42235
head  3.31537 -1.92908 -16.058
figureHair  0 1.51661e-021 -9.5315e-016
lCollar  -5.15695e-016 -6.42944e-016 -7.59357e-014
lShldr  4.06794 17.411 -73.4388
lForeArm  39.9185 -80.2701 10.9261
lHand  0.254698 0.195082 5.2986
rCollar  1.7976e-016 -5.12864e-014 1.62755e-015
rShldr  -23.5842 70.0582 -7.2756
rForeArm  43.1653 0.808519 40.0971
rHand  -1.55401 -32.4858 9.67351
lThigh  -9.44064 -15.9669 1.52628
lShin  -9.00115 12.4234 -2.74118
lFoot  2.45517 -0.304924 0.773225
rThigh  10.9921 -15.2178 -0.865278
rShin  11.737 10.7766 6.77585
rFoot  -9.18423 0.83816 -1.71714
293
root  5.22605 36.9109 -3.4808 178.193 0.897659 94.318
abdomen  0.673387 -6.85468 -1.15984
chest  1.54452 2.47647 -12.7155
neckDummy  9.09964e-021 0 8.72668e-016
neck  5.24885 10.9278 -9.52161
head  3.19369 -1.89439 -17.0144
figureHair  0 1.51661e-021 -9.5315e-016
lCollar  -5.15695e-016 -6.42944e-016 -7.59357e-014
lShldr  4.348 17.2123 -73.7752
lForeArm  40.0241 -80.1902 10.8994
lHand  0.254698 0.195082 5.2986
rCollar  1.7976e-016 -5.12864e-014 1.62755e-015
rShldr  -22.4554 69.6383 -5.9991
rForeArm  42.8977 0.817494 39.5668
rHand  -1.50377 -32.2547 9.54268
lThigh  -5.89936 -13.6833 0.225871
lShin  -8.43661 8.48175 -2.58906
lFoot  3.85405 -0.364416 -2.19369
rThigh  10.6193 -14.3087 -0.479275
rShin  11.5814 9.85198 6.69485
rFoot  -8.79401 0.704386 -2.28569
294
root  5.18212 36.9639 -3.19236 178.154 0.641159 94.0861
abdomen  0.712057 -5.79596 -0.438041
chest  1.41345 1.35368 -13.9039
neckDummy  9.09964e-021 0 8.72668e-016
neck  4.58981 11.2956 -13.6758
head  2.94693 -2.28401 -17.1406
figureHair  0 1.51661e-021 -9.5315e-016
lCollar  -5.15695e-016 -6.42944e-016 -7.59357e-014
lShldr  4.51268 17.0472 -73.7815
lForeArm  40.9187 -79.5906 10.1015
lHand  0.254698 0.195082 5.2986
rCollar  1.7976e-016 -5.12864e-014 1.62755e-015
rShldr  -21.7609 69.8286 -5.28755
rForeArm  41.8877 0.834844 38.5036
rHand  -1.42015 -31.724 9.34165
lThigh  -5.58825 -12.401 -0.272392
lShin  -6.96692 6.4738 -2.48519
lFoot  4.91509 -0.364438 -3.82746
rThigh  10.3538 -13.3293 -0.451012
rShin  11.5231 8.59149 6.49218
rFoot  -8.23039 0.53573 -2.98502
295
root  5.14063 37.0098 -2.91907 178.154 0.696945 93.9362
abdomen  0.814895 -4.50225 0.109325
chest  1.36896 0.866988 -14.8169
neckDummy  9.09964e-021 0 8.72668e-016
neck  3.89382 11.1864 -17.1345
head  2.67317 -2.85695 -16.78
figureHair  0 1.51661e-021 -9.5315e-016
lCollar  -5.15695e-016 -6.42944e-016 -7.59357e-014
lShldr  4.33028 17.0587 -73.2224
lForeArm  41.5271 -79.3129 9.79509
lHand  0.254698 0.195082 5.2986
rCollar  1.7976e-016 -5.12864e-014 1.62755e-015
rShldr  -22.2718 70.9447 -6.07808
rForeArm  41.2835 0.852194 37.4212
rHand  -1.39875 -31.5326 9.29622
lThigh  -6.35122 -11.1855 -0.00681503
lShin  -6.87517 4.96566 -3.54506
lFoot  4.64521 -0.338269 -4.27783
rThigh  10.3513 -12.6521 -0.777427
rShin  11.4526 7.73509 6.25309
rFoot  -7.72057 0.406938 -3.50639
296
root  5.09066 37.0364 -2.61549 177.646 0.704086 93.8407
abdomen  0.908704 -4.45472 0.392417
chest  1.5299 1.80009 -15.4552
neckDummy  9.09964e-021 0 8.72668e-016
neck  3.48806 11.0618 -19.0597
head  2.5297 -3.5132 -16.6719
figureHair  0 1.51661e-021 -9.5315e-016
lCollar  -5.15695e-016 -6.42944e-016 -7.59357e-014
lShldr  3.69879 17.4563 -72.634
lForeArm  41.3673 -79.5394 10.0298
lHand  0.254698 0.195082 5.2986
rCollar  1.7976e-016 -5.12864e-014 1.62755e-015
rShldr  -25.1964 72.1111 -8.97912
rForeArm  41.9155 0.852266 37.4463
rHand  -1.43697 -31.8378 9.38214
lThigh  -6.78615 -9.55253 0.0189215
lShin  -6.97593 2.79906 -4.48586
lFoot  4.50456 -0.327751 -4.85751
rThigh  10.3582 -12.0292 -1.06578
rShin  10.8834 6.73458 6.05695
rFoot  -7.2553 0.277729 -4.11549
297
root  5.04758 37.0736 -2.28337 177.042 0.65274 93.9812
abdomen  0.965333 -4.75404 0.650153
chest  1.68437 2.75716 -15.7846
neckDummy  9.09964e-021 0 8.72668e-016
neck  3.37541 11.2817 -19.7268
head  2.50827 -4.0716 -16.7928
figureHair  0 1.51661e-021 -9.5315e-016
lCollar  -5.15695e-016 -6.42944e-016 -7.59357e-014
lShldr  2.70347 18.0327 -72.7515
lForeArm  41.2029 -79.3358 9.89517
lHand  0.254698 0.195082 5.2986
rCollar  1.7976e-016 -5.12864e-014 1.62755e-015
rShldr  -29.0455 72.4079 -11.7802
rForeArm  41.2167 0.84532 37.9235
rHand  -1.29413 -31.3907 8.96167
lThigh  -6.51007 -8.43377 -0.447657
lShin  -7.47099 0.869983 -4.79845
lFoot  5.4066 -0.325855 -5.60669
rThigh  10.2892 -11.3818 -1.28188
rShin  10.1749 5.22787 5.90408
rFoot  -6.85514 0.118758 -5.00561
298
root  5.03915 37.0995 -1.95384 177.033 0.658112 94.1433
abdomen  0.979636 -4.24258 0.704142
chest  1.64011 2.69051 -15.7722
neckDummy  9.09964e-021 0 8.72668e-016
neck  3.293 11.4248 -19.9664
head  2.45182 -4.33443 -16.6637
figureHair  0 1.51661e-021 -9.5315e-016
lCollar  -5.15695e-016 -6.42944e-016 -7.59357e-014
lShldr  1.96949 18.2915 -73.2861
lForeArm  42.2516 -78.7234 9.16761
lHand  0.254698 0.195082 5.2986
rCollar  1.7976e-016 -5.12864e-014 1.62755e-015
rShldr  -31.4335 72.2736 -12.8716
rForeArm  38.2997 0.84902 37.7159
rHand  -1.02054 -30.2158 8.16752
lThigh  -6.16008 -8.3684 -1.00722
lShin  -8.0633 0.375812 -4.92536
lFoot  6.28226 -0.376445 -5.82137
rThigh  10.3907 -11.038 -1.68363
rShin  10.0542 4.25675 5.79117
rFoot  -6.52598 -0.015637 -5.69834
299
root  5.06061 37.0911 -1.63186 177.269 0.650101 94.0905
abdomen  1.0482 -3.57534 0.267117
chest  1.61451 2.47412 -15.5879
neckDummy  9.09964e-021 0 8.72668e-016
neck  3.0806 11.0933 -20.0019
head  2.28014 -4.48251 -16.4297
figureHair  0 1.51661e-021 -9.5315e-016
lCollar  -5.15695e-016 -6.42944e-016 -7.59357e-014
lShldr  2.24822 18.0391 -73.4193
lForeArm  43.3962 -78.4619 8.92987
lHand  0.254698 0.195082 5.2986
rCollar  1.7976e-016 -5.12864e-014 1.62755e-015
rShldr  -32.5871 72.3427 -13.6951
rForeArm  36.5402 0.857291 37.2117
rHand  -0.941433 -29.8051 7.93046
lThigh  -5.88492 -8.89672 -1.56127
lShin  -8.21809 1.17966 -4.95817
lFoot  6.84426 -0.430495 -5.52719
rThigh  10.7375 -11.0399 -2.27363
rShin  10.0722 4.36264 5.71909
rFoot  -6.06323 -0.0755403 -5.92417
300
root  5.09931 37.0665 -1.31255 177.229 0.543701 93.9294
abdomen  1.24186 -3.23038 -0.321041
chest  1.76946 2.54429 -15.4323
neckDummy  9.09964e-021 0 8.72668e-016
neck  2.81285 10.5541 -19.9134
head  2.07497 -4.72412 -16.3655
figureHair  0 1.51661e-021 -9.5315e-016
lCollar  -5.15695e-016 -6.42944e-016 -7.59357e-014
lShldr  3.23615 17.6238 -73.1737
lForeArm  43.2672 -78.5516 9.02584
lHand  0.254698 0.195082 5.2986
rCollar  1.7976e-016 -5.12864e-014 1.62755e-015
rShldr  -32.623 72.4308 -13.9646
rForeArm  36.9116 0.865029 36.7374
rHand  -0.998633 -30.0178 8.11011
lThigh  -5.76344 -9.66205 -1.98456
lShin  -8.29969 2.58344 -4.92875
lFoot  7.53413 -0.505877 -5.08931
rThigh  11.0614 -11.245 -2.77615
rShin  9.6626 4.8609 5.62887
rFoot  -5.38832 -0.138208 -6.05762
301
root  5.15835 37.0257 -1.00627 176.885 0.312454 93.8414
abdomen  1.47865 -2.65459 -0.756954
chest  1.92706 2.20118 -15.2462
neckDummy  9.09964e-021 0 8.72668e-016
neck  2.60406 10.2149 -20.1088
head  1.92711 -4.91287 -16.2063
figureHair  0 1.51661e-021 -9.5315e-016
lCollar  -5.15695e-016 -6.42944e-016 -7.59357e-014
lShldr  4.02313 17.4289 -73.1389
lForeArm  42.2572 -78.5982 9.0678
lHand  0.254698 0.195082 5.2986
rCollar  1.7976e-016 -5.12864e-014 1.62755e-015
rShldr  -30.9249 72.3081 -12.1308
rForeArm  36.7392 0.878376 35.8868
rHand  -0.989718 -29.7671 8.10436
lThigh  -6.15453 -10.5647 -1.9532
lShin  -8.41278 4.23109 -5.15759
lFoot  7.91821 -0.575563 -4.4168
rThigh  11.2065 -11.8922 -3.07626
rShin  9.30636 5.80573 5.45369
rFoot  -4.64006 -0.201074 -6.15141
302
root  5.22696 36.97 -0.718085 176.363 0.0170288 93.6388
abdomen  1.68078 -1.93823 -1.27726
chest  2.02218 1.59343 -14.9574
neckDummy  9.09964e-021 0 8.72668e-016
neck  2.48631 10.1665 -20.5515
head  1.84591 -4.98504 -15.8672
figureHair  0 1.51661e-021 -9.5315e-016
lCollar  -5.15695e-016 -6.42944e-016 -7.59357e-014
lShldr  4.51727 17.2962 -73.3437
lForeArm  42.0146 -78.5195 8.99728
lHand  0.254698 0.195082 5.2986
rCollar  1.7976e-016 -5.12864e-014 1.62755e-015
rShldr  -28.422 72.1368 -9.54614
rForeArm  35.6525 0.8893 35.1854
rHand  -0.953611 -29.4036 8.01375
lThigh  -6.82114 -11.1709 -1.65282
lShin  -8.34908 5.67643 -5.54252
lFoot  7.81225 -0.613774 -3.68818
rThigh  11.2864 -13.045 -3.33781
rShin  8.59809 7.68091 5.11037
rFoot  -3.56109 -0.241763 -5.91138
